<svg width="1134" height="159" viewBox="0 0 1134 159" fill="none" xmlns="http://www.w3.org/2000/svg">
<path d="M460.044 133.637C460.044 129.587 460.989 121.062 465.144 121.062C469.867 121.062 480.822 131.292 502.167 131.292C522.945 131.292 529.745 121.914 529.745 112.323C529.745 82.2708 464.389 98.8954 464.389 45.185C464.389 11.0831 489.511 0 513.501 0C523.134 0 535.601 1.7051 544.857 7.24666C552.412 11.7225 556.568 17.9035 556.568 26.0027C556.568 32.6099 553.923 36.4464 550.901 36.4464C545.612 36.4464 535.979 27.7078 518.223 27.7078C505.756 27.7078 495.745 31.5442 495.745 43.0536C495.745 72.8928 561.101 53.7105 561.101 111.044C561.101 144.72 539.945 159 506.889 159C491.967 159 477.044 156.229 468.733 150.261C463.255 146.212 460.044 140.883 460.044 133.637Z" fill="#222222" fill-opacity="0.03"/>
<path d="M606.888 102.945C606.888 123.619 618.788 130.013 630.122 130.013C641.267 130.013 649.956 124.685 653.356 124.685C655.811 124.685 657.511 127.456 657.511 133.21C657.511 136.834 656.756 143.654 651.278 148.983C645.233 154.737 634.467 157.295 623.7 157.295C593.855 157.295 575.343 136.408 575.343 102.732C575.343 69.9089 593.099 50.3003 623.889 50.3003C632.011 50.3003 640.889 51.366 647.5 55.6287C652.789 59.0389 655.622 63.941 655.622 70.9745C655.622 77.3686 652.789 80.7788 650.333 80.7788C647.5 80.7788 639.567 75.8767 629.555 75.8767C615.766 75.8767 606.888 84.6153 606.888 102.945Z" fill="#222222" fill-opacity="0.03"/>
<path d="M673.949 145.999V61.5965C673.949 54.7761 676.216 52.4316 682.449 52.4316H696.994C703.039 52.4316 705.305 54.7761 705.305 61.5965V145.999C705.305 153.032 703.039 155.164 696.994 155.164H682.449C676.405 155.164 673.949 153.032 673.949 145.999ZM672.627 30.9048V17.2641C672.627 10.4437 674.894 8.09919 680.938 8.09919H698.316C704.361 8.09919 706.628 10.4437 706.628 17.2641V30.9048C706.628 37.9383 704.361 40.2828 698.316 40.2828H680.938C674.894 40.2828 672.627 37.9383 672.627 30.9048Z" fill="#222222" fill-opacity="0.03"/>
<path d="M807.521 114.241H754.631C756.898 127.243 767.098 131.718 779.565 131.718C792.976 131.718 806.576 126.39 810.543 126.39C813.565 126.39 815.643 130.013 815.643 135.555C815.643 141.949 812.621 146.212 808.465 149.409C801.099 155.164 788.632 157.721 776.92 157.721C744.431 157.721 723.653 138.113 723.653 102.945C723.653 71.1877 740.275 50.3003 772.009 50.3003C799.398 50.3003 817.721 65.8592 817.721 102.306C817.721 112.536 816.21 114.241 807.521 114.241ZM772.198 74.811C760.676 74.811 755.198 81.2051 754.253 93.3539H788.632C788.632 80.7788 783.72 74.811 772.198 74.811Z" fill="#222222" fill-opacity="0.03"/>
<path d="M897.663 145.999V94.6327C897.663 84.4021 893.13 78.008 883.497 78.008C874.052 78.008 870.085 84.189 867.819 90.37V145.999C867.819 153.032 865.552 155.164 859.318 155.164H844.963C838.729 155.164 836.463 153.032 836.463 145.999V61.1702C836.463 54.7761 838.729 52.4316 846.474 52.4316C858.374 52.4316 861.207 53.4973 866.874 62.4491C873.108 55.6287 881.608 50.7265 894.83 50.7265C924.297 50.7265 929.208 74.811 929.208 99.3217V145.999C929.208 153.032 926.753 155.164 920.708 155.164H906.164C900.119 155.164 897.663 153.032 897.663 145.999Z" fill="#222222" fill-opacity="0.03"/>
<path d="M978.215 102.945C978.215 123.619 990.116 130.013 1001.45 130.013C1012.59 130.013 1021.28 124.685 1024.68 124.685C1027.14 124.685 1028.84 127.456 1028.84 133.21C1028.84 136.834 1028.08 143.654 1022.61 148.983C1016.56 154.737 1005.79 157.295 995.027 157.295C965.182 157.295 946.671 136.408 946.671 102.732C946.671 69.9089 964.426 50.3003 995.216 50.3003C1003.34 50.3003 1012.22 51.366 1018.83 55.6287C1024.12 59.0389 1026.95 63.941 1026.95 70.9745C1026.95 77.3686 1024.12 80.7788 1021.66 80.7788C1018.83 80.7788 1010.89 75.8767 1000.88 75.8767C987.093 75.8767 978.215 84.6153 978.215 102.945Z" fill="#222222" fill-opacity="0.03"/>
<path d="M1124.8 114.241H1071.91C1074.18 127.243 1084.38 131.718 1096.84 131.718C1110.26 131.718 1123.86 126.39 1127.82 126.39C1130.84 126.39 1132.92 130.013 1132.92 135.555C1132.92 141.949 1129.9 146.212 1125.74 149.409C1118.38 155.164 1105.91 157.721 1094.2 157.721C1061.71 157.721 1040.93 138.113 1040.93 102.945C1040.93 71.1877 1057.55 50.3003 1089.29 50.3003C1116.68 50.3003 1135 65.8592 1135 102.306C1135 112.536 1133.49 114.241 1124.8 114.241ZM1089.48 74.811C1077.95 74.811 1072.48 81.2051 1071.53 93.3539H1105.91C1105.91 80.7788 1101 74.811 1089.48 74.811Z" fill="#222222" fill-opacity="0.03"/>
<path d="M0 10.87C0 4.04967 2.07781 1.70517 8.50013 1.70517H57.8009C88.2124 1.70517 102.19 18.7561 102.19 41.7749C102.19 53.0711 98.7904 69.0564 79.9012 73.5322C103.513 76.7293 109.557 93.354 109.557 107.847C109.557 131.719 96.5237 155.164 58.5564 155.164H8.50013C2.2667 155.164 0 152.819 0 145.999V10.87ZM52.323 85.2548H33.056V128.948H52.323C73.4789 128.948 77.6345 118.291 77.6345 107.634C77.6345 97.1904 73.4789 85.2548 52.323 85.2548ZM52.323 26.6422H33.056V60.3178H52.323C66.1121 60.3178 72.3455 53.7105 72.3455 43.48C72.3455 33.2494 66.1121 26.6422 52.323 26.6422Z" fill="#222222" fill-opacity="0.03"/>
<path d="M128.119 145.999V61.1703C128.119 54.7762 130.385 52.4317 138.13 52.4317C148.897 52.4317 152.297 53.2843 156.83 59.8915C161.93 53.7105 168.73 50.3003 176.853 50.3003C191.397 50.3003 195.742 61.1703 195.742 68.8432C195.742 77.5818 192.72 83.1234 190.642 83.1234C187.997 83.1234 184.408 80.5658 178.742 80.5658C166.275 80.5658 159.664 85.681 159.475 99.9612V145.999C159.475 153.032 157.208 155.164 150.975 155.164H136.619C130.385 155.164 128.119 153.032 128.119 145.999Z" fill="#222222" fill-opacity="0.03"/>
<path d="M208.914 145.999V61.5966C208.914 54.7762 211.181 52.4317 217.414 52.4317H231.959C238.004 52.4317 240.27 54.7762 240.27 61.5966V145.999C240.27 153.032 238.004 155.164 231.959 155.164H217.414C211.37 155.164 208.914 153.032 208.914 145.999ZM207.592 30.9049V17.2642C207.592 10.4438 209.859 8.09926 215.903 8.09926H233.281C239.326 8.09926 241.592 10.4438 241.592 17.2642V30.9049C241.592 37.9384 239.326 40.2829 233.281 40.2829H215.903C209.859 40.2829 207.592 37.9384 207.592 30.9049Z" fill="#222222" fill-opacity="0.03"/>
<path d="M290.163 102.945C290.163 123.619 302.063 130.013 313.396 130.013C324.541 130.013 333.23 124.685 336.63 124.685C339.086 124.685 340.786 127.456 340.786 133.211C340.786 136.834 340.03 143.654 334.552 148.983C328.508 154.737 317.741 157.295 306.974 157.295C277.129 157.295 258.618 136.408 258.618 102.732C258.618 69.9089 276.374 50.3003 307.163 50.3003C315.285 50.3003 324.163 51.366 330.774 55.6288C336.063 59.0389 338.897 63.9411 338.897 70.9746C338.897 77.3687 336.063 80.7789 333.608 80.7789C330.774 80.7789 322.841 75.8767 312.83 75.8767C299.041 75.8767 290.163 84.6153 290.163 102.945Z" fill="#222222" fill-opacity="0.03"/>
<path d="M357.413 145.999V13.0014C357.413 6.18103 359.49 3.83653 365.913 3.83653H380.268C386.691 3.83653 388.769 6.18103 388.769 13.0014V93.1408L412.38 60.5309C416.725 54.1368 418.991 52.4317 425.602 52.4317H439.958C445.814 52.4317 448.27 53.9237 448.27 56.6944C448.27 58.3995 447.325 60.744 445.436 63.5148L417.102 99.9612L449.214 144.081C451.103 146.851 452.236 149.196 452.236 150.901C452.236 153.672 449.781 155.164 443.925 155.164H429.758C422.202 155.164 420.502 153.459 416.158 147.064L388.769 109.339V145.999C388.769 153.032 386.502 155.164 380.268 155.164H365.913C359.679 155.164 357.413 153.032 357.413 145.999Z" fill="#222222" fill-opacity="0.03"/>
</svg>
