<svg width="147" height="147" viewBox="0 0 147 147" fill="none" xmlns="http://www.w3.org/2000/svg">
<circle cx="73.5" cy="73.5" r="72" stroke="white" stroke-width="3"/>
<path fill-rule="evenodd" clip-rule="evenodd" d="M74 75.0001V101H76V75.0001L102 75.0001V73.0001L76 73.0001V45.0001H74V73.0001L46 73.0001V75.0001L74 75.0001Z" fill="white"/>
<path d="M74 101H73.5V101.5H74V101ZM74 75.0001H74.5V74.5001H74V75.0001ZM76 101V101.5H76.5V101H76ZM76 75.0001V74.5001H75.5V75.0001H76ZM102 75.0001V75.5001H102.5V75.0001H102ZM102 73.0001H102.5V72.5001H102V73.0001ZM76 73.0001H75.5V73.5001H76V73.0001ZM76 45.0001H76.5V44.5001H76V45.0001ZM74 45.0001V44.5001H73.5V45.0001H74ZM74 73.0001V73.5001H74.5V73.0001H74ZM46 73.0001L46 72.5001H45.5V73.0001H46ZM46 75.0001H45.5V75.5001H46L46 75.0001ZM74.5 101V75.0001H73.5V101H74.5ZM76 100.5H74V101.5H76V100.5ZM75.5 75.0001V101H76.5V75.0001H75.5ZM102 74.5001L76 74.5001V75.5001L102 75.5001V74.5001ZM101.5 73.0001V75.0001H102.5V73.0001H101.5ZM76 73.5001L102 73.5001V72.5001L76 72.5001V73.5001ZM75.5 45.0001V73.0001H76.5V45.0001H75.5ZM74 45.5001H76V44.5001H74V45.5001ZM74.5 73.0001V45.0001H73.5V73.0001H74.5ZM46 73.5001L74 73.5001V72.5001L46 72.5001L46 73.5001ZM46.5 75.0001V73.0001H45.5V75.0001H46.5ZM74 74.5001L46 74.5001L46 75.5001L74 75.5001V74.5001Z" fill="white" fill-opacity="0.64"/>
</svg>
