<svg width="25" height="41" viewBox="0 0 25 41" fill="none" xmlns="http://www.w3.org/2000/svg">
<path fill-rule="evenodd" clip-rule="evenodd" d="M12.463 0C16.3947 0 19.5846 3.2641 19.5846 7.12166V12.0178H5.34131V7.12166C5.34131 3.2641 8.53122 0 12.463 0ZM19.5846 14.3175V19.4362C19.5846 23.368 16.3947 26.632 12.463 26.632C8.53122 26.632 5.34131 23.368 5.34131 19.4362V14.3175H19.5846Z" fill="#222222" fill-opacity="0.72"/>
<path fill-rule="evenodd" clip-rule="evenodd" d="M10.6825 33.1603C1.11276 32.1959 0 23.368 0 15.3561C0 14.0208 2.89318 14.0208 3.18991 15.2077C3.33828 21.6617 3.33828 29.9703 12.4629 29.9703C21.6617 29.9703 21.6617 21.6617 21.8101 15.2077C22.1068 13.8724 25 14.0208 25 15.3561C25 23.368 23.8872 32.1959 14.1691 33.1603V37.6113H19.1395C21.4392 37.6113 21.4392 40.8012 19.1395 40.8012H5.71217C3.63502 40.8012 3.63502 37.6113 5.71217 37.6113H10.6825V33.1603Z" fill="#222222" fill-opacity="0.72"/>
</svg>
