<svg width="20" height="32" viewBox="0 0 20 32" fill="none" xmlns="http://www.w3.org/2000/svg">
<path fill-rule="evenodd" clip-rule="evenodd" d="M9.77466 0C12.8583 0 15.3601 2.56 15.3601 5.58545V9.42545H4.18921V5.58545C4.18921 2.56 6.69103 0 9.77466 0ZM15.3601 11.2291V15.2436C15.3601 18.3273 12.8583 20.8873 9.77466 20.8873C6.69103 20.8873 4.18921 18.3273 4.18921 15.2436V11.2291H15.3601Z" fill="#D15133"/>
<path fill-rule="evenodd" clip-rule="evenodd" d="M8.37818 26.0073C0.872727 25.251 0 18.3273 0 12.0437C0 10.9964 2.26909 10.9964 2.50182 11.9273C2.61818 16.9891 2.61818 23.5055 9.77454 23.5055C16.9891 23.5055 16.9891 16.9891 17.1055 11.9273C17.3382 10.8801 19.6073 10.9964 19.6073 12.0437C19.6073 18.3273 18.7345 25.251 11.1127 26.0073V29.4982H15.0109C16.8145 29.4982 16.8145 32.0001 15.0109 32.0001H4.48C2.85091 32.0001 2.85091 29.4982 4.48 29.4982H8.37818V26.0073Z" fill="#D15133"/>
</svg>
