<svg width="29" height="32" viewBox="0 0 29 32" fill="none" xmlns="http://www.w3.org/2000/svg">
<path d="M13.8273 8.75499C13.7905 8.78007 13.7551 8.80731 13.7214 8.83657C13.5609 8.97037 13.4004 9.11069 13.2592 9.25755L13.2303 9.29018C13.1051 9.4403 12.9895 9.59694 12.8772 9.75684L12.8579 9.78621C12.8066 9.87759 12.7584 9.96896 12.7103 10.0701L12.6846 10.1256C12.6426 10.2063 12.6072 10.2903 12.5787 10.3769C12.5466 10.4748 12.5177 10.5727 12.4952 10.6706L12.4599 10.8174C12.4509 10.8649 12.4444 10.9128 12.4406 10.961V10.9969C12.4135 11.2005 12.4135 11.4069 12.4406 11.6104V11.6659C12.4502 11.7428 12.4641 11.8191 12.4824 11.8944V11.9335C12.5016 12.002 12.5209 12.0706 12.5369 12.113C12.5805 12.2491 12.6375 12.3803 12.7071 12.5046L12.7424 12.5699C12.81 12.6836 12.8851 12.7926 12.9671 12.8962L12.9928 12.9256L13.0249 12.9615C13.0903 13.0352 13.1599 13.105 13.2335 13.1703L13.2656 13.1964C13.324 13.2465 13.3851 13.2934 13.4486 13.3368C13.5501 13.4072 13.6575 13.4683 13.7696 13.5195L13.8081 13.5358C13.868 13.5625 13.9304 13.5833 13.9943 13.5978H14.0103C14.0749 13.6114 14.1417 13.6106 14.206 13.5954C14.2703 13.5802 14.3306 13.5509 14.3827 13.5097C14.4319 13.4705 14.4726 13.4212 14.5019 13.365C14.5312 13.3087 14.5485 13.2469 14.5528 13.1834V13.0529C14.5528 13.0137 14.5528 12.9615 14.5528 12.8995L14.5785 12.6351L14.6138 12.4328C14.6362 12.3294 14.6696 12.2287 14.7133 12.1326C14.7293 12.1032 14.7454 12.0738 14.7582 12.0477L14.7807 12.0184L14.816 11.9727L14.877 11.9107L14.9604 11.8487H14.9797L15.0888 11.7769C15.1407 11.7491 15.191 11.7186 15.2397 11.6855C15.3094 11.6577 15.3761 11.6227 15.4387 11.5811L15.5511 11.5223L15.734 11.4244L16.1064 11.2156C16.4503 10.999 16.759 10.7293 17.0212 10.416C17.2982 10.0862 17.5096 9.70501 17.644 9.29344C17.7688 8.91434 17.8211 8.51446 17.798 8.11537C17.7786 7.77906 17.7049 7.44829 17.5798 7.13635C17.4089 6.70672 17.1406 6.32428 16.7965 6.02028C16.7082 5.94193 16.6137 5.87099 16.5141 5.80816L16.4723 5.78205C16.4212 5.74838 16.3676 5.71892 16.3118 5.69394C16.2504 5.66916 16.1843 5.65836 16.1183 5.66231C16.0524 5.66625 15.988 5.68485 15.9298 5.71679C15.8704 5.75021 15.8193 5.79699 15.7804 5.85354C15.7414 5.91009 15.7157 5.97493 15.7052 6.04312L15.6827 6.17692C15.6827 6.20956 15.6827 6.25198 15.6602 6.30093L15.6313 6.44778C15.5764 6.73496 15.5002 7.0175 15.4034 7.293C15.3575 7.42235 15.2994 7.54693 15.2301 7.66502C15.1718 7.76185 15.1029 7.85162 15.0246 7.93262C14.9434 8.01595 14.8565 8.09337 14.7646 8.16432C14.6619 8.24264 14.5464 8.32422 14.418 8.40581L14.2222 8.50371L14.1708 8.53634L14.0906 8.58856L13.9204 8.70604L13.8273 8.75499ZM14.0617 3.00166C14.1719 3.53898 14.1807 4.09272 14.0873 4.63335C13.981 5.22402 13.763 5.78812 13.4454 6.2944C13.1465 6.7787 12.775 7.21253 12.3443 7.58017L11.8693 7.94893L11.6349 8.12516L11.4777 8.23937C11.4012 8.31051 11.3172 8.37289 11.2273 8.42539C11.1619 8.48469 11.0933 8.54026 11.0218 8.59182C10.9801 8.63424 10.932 8.67667 10.8838 8.71583L10.8485 8.7452C10.8172 8.78182 10.784 8.81668 10.749 8.84962C10.749 8.84962 10.7297 8.86921 10.7201 8.88226L10.6367 8.98995C10.6241 9.0168 10.6102 9.04295 10.5949 9.06827L10.5692 9.11396V9.14659C10.5692 9.18902 10.5436 9.22818 10.5243 9.27386C10.4762 9.43415 10.446 9.59946 10.4344 9.76663V10.0669L10.4216 10.4617C10.4216 10.5564 10.4216 10.638 10.4409 10.6967L10.4633 10.8762C10.4715 10.9437 10.4655 11.0121 10.4457 11.0771C10.4259 11.142 10.3927 11.2019 10.3484 11.2528C10.3041 11.3037 10.2496 11.3445 10.1886 11.3724C10.1277 11.4003 10.0615 11.4147 9.99467 11.4146H9.95936C9.87586 11.4065 9.79318 11.3912 9.71219 11.3689H9.66405C9.49846 11.3243 9.33728 11.2642 9.18255 11.1895C9.08568 11.1425 8.99139 11.0902 8.90008 11.0328L8.85514 11.0067C8.74353 10.9351 8.63634 10.8566 8.53415 10.7718L8.47637 10.7261L8.44748 10.7C8.3173 10.5776 8.19507 10.4468 8.08155 10.3084L8.02377 10.23C7.90767 10.0785 7.8066 9.91559 7.72203 9.74379C7.68993 9.68179 7.65141 9.59694 7.61289 9.50556L7.59042 9.45009C7.5527 9.35418 7.52055 9.25611 7.49413 9.15638L7.47166 9.0748C7.39508 8.80521 7.35406 8.52647 7.34968 8.2459V8.17737C7.34637 8.11541 7.34637 8.05332 7.34968 7.99136L7.36894 7.7825C7.36894 7.64218 7.40104 7.50185 7.42672 7.35826C7.44716 7.23742 7.47721 7.11846 7.5166 7.00256L7.54228 6.91771C7.58721 6.77412 7.63536 6.63706 7.68672 6.5L7.70277 6.4641C7.82154 6.21935 7.95636 5.97459 8.0976 5.73963L8.12327 5.70047C8.29661 5.46551 8.486 5.23707 8.6818 5.01842C8.71988 4.97352 8.76062 4.93102 8.80378 4.89115L8.92255 4.77693C8.98996 4.71167 9.06379 4.6464 9.13762 4.57787L9.26601 4.46039L9.2949 4.43428L9.57096 4.20911C9.74108 4.06226 9.89195 3.91867 10.0268 3.78161C10.1481 3.65588 10.2607 3.52176 10.3638 3.38021C10.4651 3.23816 10.5501 3.08488 10.6174 2.92334C10.6957 2.73272 10.7559 2.53493 10.7972 2.33267C10.8798 1.91515 10.9313 1.49188 10.9512 1.06648C10.9512 0.994684 10.9512 0.919626 10.9512 0.851096C10.9512 0.782565 10.9512 0.710771 10.9512 0.658557V0.472544C10.9528 0.398579 10.9711 0.32597 11.0046 0.260318C11.0382 0.194667 11.0861 0.137728 11.1447 0.0938955C11.2033 0.0500629 11.2711 0.020508 11.3427 0.00751118C11.4144 -0.00548568 11.488 -0.0015771 11.5579 0.0189353C11.6359 0.0397965 11.7122 0.0670814 11.7858 0.10052L11.8468 0.126627C11.9926 0.191474 12.1332 0.267854 12.2673 0.355063C12.7944 0.698623 13.2343 1.16374 13.5513 1.71263C13.7904 2.11062 13.9629 2.54622 14.0617 3.00166ZM27.9639 21.5311C28.1589 20.7342 28.1728 19.9025 28.0045 19.0993C27.8363 18.2961 27.4903 17.5425 26.9928 16.8955C26.4953 16.2485 25.8594 15.7252 25.1333 15.3653C24.4073 15.0054 23.6101 14.8183 22.8023 14.8183H1.39845C1.20842 14.818 1.02032 14.8572 0.845688 14.9334C0.671053 15.0096 0.513553 15.1212 0.382833 15.2614C0.252113 15.4016 0.150923 15.5675 0.0854611 15.7489C0.019999 15.9303 -0.0083579 16.1233 0.002127 16.3162C0.17035 18.9088 0.607181 21.476 1.30536 23.9754C1.83003 25.8508 2.86346 27.5381 4.2874 28.8443H2.44489C2.03327 28.8443 1.63851 29.0106 1.34746 29.3065C1.0564 29.6024 0.892885 30.0037 0.892885 30.4222C0.892885 30.8406 1.0564 31.242 1.34746 31.5379C1.63851 31.8338 2.03327 32 2.44489 32H19.9005C20.3122 32 20.7069 31.8338 20.998 31.5379C21.289 31.242 21.4525 30.8406 21.4525 30.4222C21.4525 30.0037 21.289 29.6024 20.998 29.3065C20.7069 29.0106 20.3122 28.8443 19.9005 28.8443H18.0548C19.04 27.9401 19.8425 26.8494 20.4173 25.6332H22.8023C23.9896 25.6332 25.1427 25.2293 26.0781 24.486C27.0135 23.7426 27.6773 22.7024 27.9639 21.5311ZM24.8374 20.7414C24.7278 21.2062 24.4674 21.62 24.0982 21.916C23.729 22.212 23.2725 22.373 22.8023 22.373H21.4445C21.7716 20.9669 22.0191 19.5428 22.186 18.1078H22.8023C23.1209 18.1076 23.4353 18.1812 23.7216 18.3231C24.008 18.4649 24.2588 18.6712 24.455 18.9264C24.6512 19.1815 24.7876 19.4787 24.8539 19.7955C24.9201 20.1122 24.9145 20.4402 24.8374 20.7544V20.7414Z" fill="#D15133"/>
</svg>
