<svg width="35" height="34" viewBox="0 0 35 34" fill="none" xmlns="http://www.w3.org/2000/svg">
<path d="M29.1499 2.83292V1.13293C29.1499 0.832779 29.0303 0.544567 28.8178 0.332069C28.6053 0.11957 28.3171 4.07997e-05 28.017 4.07997e-05H26.8828C26.2572 4.07997e-05 25.7499 0.507385 25.7499 1.13291V2.8329H18.95V1.13291C18.95 0.832759 18.8304 0.544546 18.6179 0.332048C18.4054 0.11955 18.1172 2.03998e-05 17.8171 2.03998e-05H16.6829C16.0573 2.03998e-05 15.55 0.507364 15.55 1.13289V2.83288H8.75005V1.13289C8.75005 0.832738 8.63052 0.544526 8.41803 0.332028C8.20553 0.119529 7.91731 0 7.61716 0H6.48297C5.85744 0 5.3501 0.507344 5.3501 1.13287V2.83286C3.99806 2.83419 2.70182 3.37206 1.74544 4.3283C0.789066 5.28454 0.251326 6.58078 0.25 7.93295V28.8999C0.251328 30.2519 0.789202 31.5482 1.74544 32.5046C2.70169 33.4609 3.99793 33.9987 5.3501 34H29.1499C30.5019 33.9987 31.7982 33.4608 32.7546 32.5046C33.7109 31.5483 34.2487 30.2521 34.25 28.8999V7.93295C34.2487 6.58092 33.7108 5.28468 32.7546 4.3283C31.7983 3.37192 30.502 2.83424 29.1499 2.83292ZM26.8828 1.13293H28.0156V5.66578L26.8828 5.6671V1.13293ZM16.6828 1.13293H17.8157V5.66578L16.6828 5.6671V1.13293ZM6.48293 1.13293H7.6158V5.66578L6.48293 5.6671V1.13293ZM29.1499 32.8669H5.35005C3.16 32.8643 1.38569 31.0899 1.38297 28.8998V10.7671H33.117V28.8998C33.1143 31.0899 31.3399 32.8642 29.1499 32.8669ZM33.117 9.63422L1.38297 9.63289V7.93291C1.38562 5.74418 3.16 3.9699 5.35005 3.96718V5.66717C5.35005 5.96732 5.46958 6.25553 5.68208 6.46803C5.89458 6.68053 6.1828 6.80006 6.48295 6.80006H7.61714C7.91729 6.80006 8.20551 6.68053 8.41801 6.46803C8.6305 6.25553 8.75003 5.96732 8.75003 5.66717V3.96718H15.55V5.66717C15.55 5.96732 15.6695 6.25553 15.882 6.46803C16.0945 6.68053 16.3827 6.80006 16.6829 6.80006H17.8171C18.1172 6.80006 18.4054 6.68053 18.6179 6.46803C18.8304 6.25553 18.95 5.96732 18.95 5.66717V3.96718H25.7499V5.66717C25.7499 5.96732 25.8694 6.25553 26.0819 6.46803C26.2944 6.68053 26.5826 6.80006 26.8828 6.80006H28.017C28.3171 6.80006 28.6054 6.68053 28.8179 6.46803C29.0304 6.25553 29.1499 5.96732 29.1499 5.66717V3.96718C31.3399 3.96984 33.1143 5.74421 33.117 7.93291L33.117 9.63422Z" fill="#222222" fill-opacity="0.64"/>
</svg>
