<svg width="773" height="117" viewBox="0 0 773 117" fill="none" xmlns="http://www.w3.org/2000/svg">
<path d="M231.618 106.167L231.628 106.158L231.638 106.149C236.037 101.904 236.592 96.5256 236.592 93.832C236.592 91.7258 236.288 89.8432 235.53 88.3924C234.716 86.8338 233.268 85.6467 231.298 85.6467C230.252 85.6467 229.076 86.0197 228.147 86.3334C227.604 86.5169 227.145 86.6812 226.675 86.8494C226.082 87.0614 225.472 87.2797 224.656 87.5501C222.079 88.4034 219.038 89.2 215.68 89.2C212.307 89.2 209.09 88.257 206.73 86.0275C204.404 83.8302 202.561 80.0514 202.561 73.6493C202.561 67.9121 203.963 64.0767 206.073 61.7003C208.145 59.3677 211.204 58.0987 215.299 58.0987C218.269 58.0987 220.987 58.8208 223.29 59.601C224.023 59.8494 224.621 60.0692 225.199 60.2815C225.596 60.4275 225.984 60.5699 226.399 60.7158C227.188 60.9929 228.289 61.3677 229.267 61.3677C231.273 61.3677 232.846 60.0364 233.789 58.5144C234.77 56.931 235.322 54.8134 235.322 52.3296C235.322 46.7925 232.988 42.7268 228.709 39.9901C223.637 36.7458 217.059 36.0429 211.489 36.0429C200.598 36.0429 191.717 39.4991 185.578 46.1166C179.462 52.7082 176.355 62.1252 176.355 73.5072C176.355 85.1825 179.593 94.9282 185.721 101.787C191.878 108.679 200.721 112.393 211.362 112.393C218.816 112.393 226.855 110.666 231.618 106.167ZM306.411 48.8971L306.459 48.8355L306.503 48.771C307.849 46.813 308.848 44.7245 308.848 42.8068C308.848 41.9611 308.654 41.0844 308.16 40.2775C307.668 39.4744 306.972 38.8923 306.201 38.4839C304.747 37.7128 302.85 37.4642 300.76 37.4642H291.11C288.692 37.4642 286.646 37.7671 284.765 38.9485C282.992 40.0619 281.636 41.7981 280.18 43.9211L268.848 59.4458V13.6699C268.848 11.29 268.519 8.90868 266.944 7.20943C265.318 5.45437 262.971 5.05827 260.634 5.05827H250.984C248.647 5.05827 246.3 5.45437 244.674 7.20943C243.099 8.90869 242.769 11.2901 242.769 13.6699V102.36C242.769 104.83 243.137 107.225 244.752 108.907C246.4 110.622 248.739 110.972 250.984 110.972H260.634C262.879 110.972 265.218 110.622 266.865 108.907C268.481 107.225 268.848 104.83 268.848 102.36V85.562L282.72 104.515C284.122 106.561 285.403 108.349 287.182 109.48C289.082 110.688 291.231 110.972 293.904 110.972H303.427C305.516 110.972 307.414 110.723 308.868 109.952C309.638 109.543 310.335 108.961 310.827 108.158C311.321 107.351 311.514 106.475 311.514 105.629C311.514 104.547 311.165 103.494 310.748 102.582C310.318 101.64 309.724 100.656 309.043 99.6647L309.021 99.6329L308.998 99.6018L288.533 71.7093L306.411 48.8971ZM10.7142 3.63696C8.37792 3.63696 6.03027 4.03305 4.4042 5.78812C2.82984 7.48737 2.5 9.86874 2.5 12.2486V102.36C2.5 104.782 2.87631 107.15 4.46689 108.836C6.09779 110.566 8.41827 110.972 10.7142 110.972H44.3644C57.6571 110.972 66.966 106.882 72.9251 100.349C78.842 93.8633 81.1495 85.3046 81.1495 76.9184C81.1495 71.7759 80.0739 66.0196 76.6755 61.2094C74.3627 57.9358 71.0671 55.2328 66.5824 53.4599C69.5499 51.5529 71.6821 49.077 73.1646 46.344C75.6021 41.8504 76.1972 36.8312 76.1972 32.8577C76.1972 24.6731 73.682 17.284 68.1847 11.9472C62.6909 6.61391 54.5351 3.63696 43.8564 3.63696H10.7142ZM40.174 88.4894H29.7218V64.3524H40.174C46.8237 64.3524 50.2728 66.1995 52.1248 68.3389C54.0357 70.5463 54.6895 73.5662 54.6895 76.7762C54.6895 80.0635 54.0332 82.8553 52.1835 84.8461C50.3601 86.8085 46.9075 88.4894 40.174 88.4894ZM29.7218 42.7231V25.2663H40.174C44.4502 25.2663 47.1323 26.285 48.7225 27.6936C50.265 29.0599 51.134 31.1081 51.134 33.9947C51.134 36.8813 50.265 38.9295 48.7225 40.2958C47.1323 41.7044 44.4502 42.7231 40.174 42.7231H29.7218ZM88.6274 45.7916V102.36C88.6274 104.83 88.9948 107.225 90.6104 108.907C92.2583 110.622 94.5968 110.972 96.8416 110.972H106.492C108.737 110.972 111.076 110.622 112.723 108.907C114.339 107.225 114.706 104.83 114.706 102.36V71.6766C114.768 67.2595 115.825 64.828 117.299 63.4435C118.798 62.0347 121.238 61.2256 125.159 61.2256C126.677 61.2256 127.941 61.5608 129.142 61.9541C129.325 62.0141 129.532 62.0843 129.748 62.1575C130.161 62.2978 130.607 62.4491 130.979 62.5602C131.583 62.7404 132.346 62.9311 133.158 62.9311C134.584 62.9311 135.601 62.0462 136.156 61.4188C136.783 60.7104 137.298 59.8008 137.707 58.8095C138.534 56.807 139.087 54.0939 139.087 50.9083C139.087 47.9347 138.248 44.2487 135.86 41.2495C133.394 38.1524 129.473 36.0429 123.889 36.0429C118.707 36.0429 114.197 37.8591 110.595 41.1481C109.457 39.9551 108.189 39.0541 106.588 38.457C104.248 37.5839 101.427 37.4642 97.8574 37.4642C95.162 37.4642 92.6418 37.8321 90.8724 39.4165C89.0129 41.0815 88.6274 43.4833 88.6274 45.7916ZM142.942 46.0759V102.36C142.942 104.871 143.356 107.254 144.988 108.922C146.64 110.613 148.952 110.972 151.156 110.972H160.934C163.132 110.972 165.441 110.615 167.069 108.891C168.652 107.213 169.021 104.832 169.021 102.36V46.0759C169.021 43.6519 168.644 41.2976 167.085 39.6154C165.475 37.8776 163.185 37.4642 160.934 37.4642H151.156C148.86 37.4642 146.54 37.8699 144.909 39.5993C143.318 41.2859 142.942 43.6538 142.942 46.0759ZM142.053 16.5126V25.609C142.053 28.0891 142.425 30.475 143.974 32.177C145.586 33.9494 147.89 34.3627 150.14 34.3627H161.823C164.073 34.3627 166.377 33.9494 167.989 32.177C169.537 30.475 169.91 28.0891 169.91 25.609V16.5126C169.91 14.0885 169.532 11.7343 167.974 10.0521C166.364 8.31426 164.073 7.9009 161.823 7.9009H150.14C147.889 7.9009 145.599 8.31426 143.989 10.0521C142.43 11.7343 142.053 14.0885 142.053 16.5126Z" fill="#FDDC01" stroke="#0B3E7A" stroke-width="5"/>
<path d="M318.626 107.219L318.64 107.229L318.654 107.239C321.834 109.504 326.107 111.057 330.737 112.053C335.4 113.056 340.596 113.53 345.755 113.53C357.167 113.53 366.939 111.093 373.894 105.395C380.939 99.6243 384.698 90.8382 384.698 79.0504C384.698 68.9651 381.78 61.9617 377.175 56.9442C372.644 52.0066 366.691 49.2317 361.099 47.1605C359.291 46.4908 357.442 45.8683 355.685 45.2767C354.752 44.9626 353.846 44.6572 352.985 44.3581C350.431 43.4711 348.182 42.6086 346.304 41.607C344.429 40.6072 343.063 39.5405 342.163 38.3199C341.296 37.1451 340.763 35.6954 340.763 33.7105C340.763 30.7731 341.964 29.0296 343.939 27.8729C346.107 26.6029 349.36 25.9771 353.374 25.9771C358.909 25.9771 363.179 27.3217 366.552 28.7041C367.403 29.0527 368.197 29.4036 368.954 29.7425C369.083 29.8001 369.211 29.8577 369.339 29.9152C369.952 30.1898 370.554 30.4599 371.115 30.697C372.386 31.234 373.887 31.8045 375.341 31.8045C377.525 31.8045 379.18 30.4166 380.164 28.7396C381.15 27.0593 381.651 24.8458 381.651 22.34C381.651 15.8691 378.215 11.011 372.55 7.68001C365.765 3.65244 356.859 2.5 350.199 2.5C341.809 2.5 332.958 4.41446 326.141 9.53986C319.211 14.7513 314.684 23.0604 314.684 35.1318C314.684 44.6618 317.633 51.3242 322.241 56.1466C326.761 60.8767 332.693 63.6352 338.257 65.7681C339.836 66.3737 341.499 66.9686 343.092 67.5386C344.231 67.9459 345.334 68.3405 346.346 68.7172C348.891 69.665 351.141 70.5968 353.02 71.6639C354.896 72.7291 356.28 73.8612 357.196 75.1462C358.082 76.389 358.619 77.8957 358.619 79.9032C358.619 82.4732 357.725 84.8755 355.505 86.6914C353.221 88.5595 349.232 90.0529 342.58 90.0529C335.828 90.0529 330.736 88.4538 326.92 86.8393C325.529 86.2508 324.348 85.6802 323.259 85.1538C322.815 84.9392 322.387 84.732 321.965 84.5339C321.269 84.2067 320.569 83.8948 319.91 83.664C319.27 83.4401 318.499 83.2306 317.692 83.2306C316.012 83.2306 314.788 84.129 314.012 85.1156C313.276 86.0519 312.823 87.1953 312.528 88.2172C311.931 90.2831 311.763 92.635 311.763 94.1163C311.763 99.8578 314.398 104.118 318.626 107.219ZM444.536 106.167L444.546 106.158L444.555 106.149C448.954 101.904 449.51 96.5257 449.51 93.8321C449.51 91.7258 449.206 89.8433 448.448 88.3925C447.633 86.8339 446.186 85.6468 444.216 85.6468C443.169 85.6468 441.994 86.0198 441.065 86.3335C440.522 86.517 440.063 86.6813 439.593 86.8495C439 87.0616 438.39 87.2798 437.573 87.5502C434.997 88.4035 431.956 89.2001 428.597 89.2001C425.225 89.2001 422.008 88.257 419.648 86.0276C417.322 83.8303 415.479 80.0515 415.479 73.6494C415.479 67.9122 416.88 64.0768 418.991 61.7004C421.062 59.3678 424.122 58.0988 428.216 58.0988C431.186 58.0988 433.905 58.8209 436.208 59.6011C436.941 59.8495 437.539 60.0692 438.117 60.2816C438.514 60.4276 438.901 60.57 439.317 60.7159C440.106 60.993 441.207 61.3678 442.184 61.3678C444.191 61.3678 445.763 60.0365 446.706 58.5145C447.688 56.931 448.24 54.8135 448.24 52.3297C448.24 46.7926 445.906 42.7269 441.627 39.9902C436.554 36.7459 429.977 36.043 424.407 36.043C413.516 36.043 404.635 39.4992 398.495 46.1167C392.38 52.7083 389.273 62.1253 389.273 73.5073C389.273 85.1825 392.511 94.9282 398.638 101.787C404.796 108.679 413.638 112.393 424.28 112.393C431.734 112.393 439.773 110.666 444.536 106.167ZM694.159 106.167L694.169 106.158L694.179 106.149C698.578 101.904 699.133 96.5257 699.133 93.8321C699.133 91.7258 698.829 89.8433 698.071 88.3925C697.257 86.8339 695.809 85.6468 693.84 85.6468C692.793 85.6468 691.617 86.0198 690.688 86.3335C690.145 86.517 689.686 86.6813 689.216 86.8495C688.623 87.0616 688.013 87.2798 687.197 87.5502C684.62 88.4035 681.579 89.2001 678.221 89.2001C674.848 89.2001 671.631 88.257 669.271 86.0276C666.946 83.8303 665.102 80.0515 665.102 73.6494C665.102 67.9122 666.504 64.0768 668.614 61.7004C670.686 59.3678 673.745 58.0988 677.84 58.0988C680.81 58.0988 683.528 58.8209 685.831 59.6011C686.564 59.8495 687.162 60.0693 687.74 60.2816C688.137 60.4276 688.525 60.57 688.94 60.7159C689.729 60.993 690.83 61.3678 691.808 61.3678C693.814 61.3678 695.387 60.0365 696.33 58.5145C697.311 56.9311 697.863 54.8136 697.863 52.3297C697.863 46.7925 695.529 42.7269 691.25 39.9902C686.178 36.7459 679.6 36.043 674.03 36.043C663.139 36.043 654.258 39.4992 648.119 46.1167C642.003 52.7083 638.896 62.1253 638.896 73.5073C638.896 85.1825 642.134 94.9282 648.262 101.787C654.419 108.679 663.262 112.393 673.903 112.393C681.357 112.393 689.396 110.666 694.159 106.167ZM455.56 46.076V102.36C455.56 104.871 455.974 107.254 457.606 108.922C459.259 110.613 461.57 110.972 463.774 110.972H473.552C475.751 110.972 478.059 110.615 479.687 108.891C481.271 107.213 481.639 104.832 481.639 102.36V46.076C481.639 43.652 481.262 41.2977 479.703 39.6155C478.093 37.8777 475.803 37.4643 473.552 37.4643H463.774C461.478 37.4643 459.158 37.8699 457.527 39.5993C455.936 41.286 455.56 43.6538 455.56 46.076ZM454.671 16.5126V25.609C454.671 28.0892 455.044 30.4751 456.592 32.1771C458.204 33.9495 460.508 34.3628 462.758 34.3628H474.441C476.691 34.3628 478.995 33.9495 480.608 32.1771C482.156 30.4751 482.528 28.0892 482.528 25.609V16.5126C482.528 14.0886 482.151 11.7344 480.592 10.0522C478.982 8.31435 476.692 7.90099 474.441 7.90099H462.758C460.508 7.90099 458.217 8.31435 456.607 10.0521C455.049 11.7344 454.671 14.0886 454.671 16.5126ZM515.61 83.6824H547.853C549.352 83.6824 550.748 83.614 551.955 83.3331C553.215 83.0402 554.425 82.4806 555.362 81.3971C556.268 80.3507 556.696 79.0703 556.923 77.7757C557.148 76.487 557.21 74.9581 557.21 73.223C557.21 60.675 554.029 51.2915 548.058 45.0418C542.071 38.7758 533.647 36.043 523.981 36.043C512.743 36.043 503.882 39.7324 497.86 46.4917C491.877 53.208 488.973 62.6456 488.973 73.6494C488.973 85.8739 492.624 95.7036 499.423 102.479C506.218 109.25 515.864 112.677 527.282 112.677C535.351 112.677 544.405 110.956 550.012 106.616C553.245 104.146 555.813 100.634 555.813 95.3955C555.813 93.2757 555.419 91.2822 554.537 89.7228C553.633 88.1246 552.058 86.7839 549.885 86.7839C548.861 86.7839 547.482 87.0947 546.184 87.4096C545.559 87.5613 544.935 87.7195 544.279 87.8854C543.366 88.1167 542.394 88.363 541.276 88.628C537.583 89.5038 533.271 90.3372 529.06 90.3372C525.122 90.3372 521.833 89.6286 519.425 88.1361C517.804 87.1316 516.48 85.7111 515.61 83.6824ZM530.657 59.5755C531.584 60.6316 532.265 62.2671 532.532 64.7535H514.905C515.374 62.4733 516.179 60.8562 517.225 59.7516C518.588 58.3116 520.701 57.3881 524.108 57.3881C527.576 57.3881 529.513 58.2717 530.657 59.5755ZM605.951 68.1063V102.36C605.951 104.871 606.366 107.254 607.997 108.922C609.65 110.613 611.961 110.972 614.165 110.972H623.943C626.147 110.972 628.459 110.613 630.112 108.922C631.743 107.254 632.157 104.871 632.157 102.36V71.2332C632.157 62.998 631.347 54.3498 627.726 47.7045C625.885 44.3272 623.306 41.4421 619.751 39.4193C616.206 37.402 611.839 36.3273 606.547 36.3273C598.367 36.3273 592.541 38.9198 588.131 42.7836C586.789 41.02 585.38 39.6782 583.537 38.8061C581.004 37.6073 577.971 37.4643 574.039 37.4643C571.344 37.4643 568.824 37.8322 567.054 39.4166C565.195 41.0816 564.809 43.4834 564.809 45.7917V102.36C564.809 104.83 565.177 107.225 566.792 108.907C568.44 110.622 570.779 110.972 573.023 110.972H582.674C584.919 110.972 587.257 110.622 588.905 108.907C590.521 107.225 590.888 104.83 590.888 102.36V65.7227C591.566 63.9902 592.407 62.4983 593.557 61.4211C594.725 60.3274 596.361 59.5201 598.928 59.5201C601.578 59.5201 603.181 60.3642 604.184 61.5888C605.255 62.8974 605.951 65.0186 605.951 68.1063ZM728.9 83.6824H761.143C762.642 83.6824 764.037 83.614 765.245 83.3331C766.504 83.0402 767.714 82.4806 768.652 81.3971C769.558 80.3507 769.986 79.0703 770.213 77.7757C770.438 76.487 770.5 74.9581 770.5 73.223C770.5 60.675 767.318 51.2915 761.347 45.0418C755.361 38.7758 746.937 36.043 737.27 36.043C726.032 36.043 717.171 39.7324 711.15 46.4917C705.167 53.208 702.263 62.6456 702.263 73.6494C702.263 85.8739 705.914 95.7036 712.712 102.479C719.508 109.25 729.154 112.677 740.572 112.677C748.64 112.677 757.695 110.956 763.302 106.616C766.535 104.146 769.103 100.634 769.103 95.3955C769.103 93.2757 768.709 91.2822 767.827 89.7228C766.922 88.1246 765.348 86.7839 763.175 86.7839C762.151 86.7839 760.772 87.0947 759.474 87.4096C758.849 87.5613 758.224 87.7195 757.569 87.8854C756.656 88.1167 755.684 88.363 754.566 88.628C750.873 89.5038 746.561 90.3372 742.35 90.3372C738.411 90.3372 735.123 89.6286 732.715 88.1361C731.094 87.1316 729.77 85.7111 728.9 83.6824ZM745.821 64.7535H728.195C728.664 62.4733 729.469 60.8562 730.514 59.7516C731.878 58.3116 733.991 57.3881 737.397 57.3881C740.866 57.3881 742.802 58.2717 743.947 59.5755C744.874 60.6316 745.555 62.2671 745.821 64.7535Z" fill="white" stroke="#0B3E7A" stroke-width="5"/>
</svg>
