<svg width="367" height="51" viewBox="0 0 367 51" fill="none" xmlns="http://www.w3.org/2000/svg">
<path d="M148.754 42.8646C148.754 41.5657 149.06 38.8311 150.403 38.8311C151.93 38.8311 155.473 42.1126 162.375 42.1126C169.093 42.1126 171.292 39.1046 171.292 36.0281C171.292 26.3887 150.159 31.7212 150.159 14.4933C150.159 3.55496 158.283 0 166.039 0C169.154 0 173.186 0.546918 176.178 2.3244C178.621 3.76005 179.965 5.74263 179.965 8.34048C179.965 10.4598 179.11 11.6903 178.133 11.6903C176.423 11.6903 173.308 8.8874 167.566 8.8874C163.535 8.8874 160.298 10.118 160.298 13.8097C160.298 23.3807 181.431 17.2279 181.431 35.618C181.431 46.4196 174.59 51 163.902 51C159.077 51 154.251 50.1113 151.564 48.1971C149.793 46.8981 148.754 45.189 148.754 42.8646Z" fill="#06376B"/>
<path d="M196.236 33.0201C196.236 39.6515 200.084 41.7024 203.749 41.7024C207.352 41.7024 210.162 39.9933 211.261 39.9933C212.055 39.9933 212.605 40.882 212.605 42.7279C212.605 43.8901 212.361 46.0777 210.589 47.7869C208.635 49.6327 205.154 50.4531 201.672 50.4531C192.022 50.4531 186.036 43.7533 186.036 32.9517C186.036 22.4236 191.777 16.134 201.733 16.134C204.359 16.134 207.23 16.4759 209.368 17.8432C211.078 18.937 211.994 20.5094 211.994 22.7654C211.994 24.8164 211.078 25.9102 210.284 25.9102C209.368 25.9102 206.803 24.3378 203.565 24.3378C199.107 24.3378 196.236 27.1407 196.236 33.0201Z" fill="#06376B"/>
<path d="M217.92 46.8298V19.7574C217.92 17.5697 218.653 16.8177 220.669 16.8177H225.372C227.326 16.8177 228.059 17.5697 228.059 19.7574V46.8298C228.059 49.0858 227.326 49.7694 225.372 49.7694H220.669C218.714 49.7694 217.92 49.0858 217.92 46.8298ZM217.493 9.91287V5.53754C217.493 3.34987 218.226 2.59785 220.18 2.59785H225.799C227.754 2.59785 228.487 3.34987 228.487 5.53754V9.91287C228.487 12.1689 227.754 12.9209 225.799 12.9209H220.18C218.226 12.9209 217.493 12.1689 217.493 9.91287Z" fill="#06376B"/>
<path d="M261.11 36.6434H244.008C244.741 40.8137 248.04 42.2493 252.071 42.2493C256.407 42.2493 260.805 40.5402 262.088 40.5402C263.065 40.5402 263.737 41.7024 263.737 43.4799C263.737 45.5308 262.759 46.8981 261.416 47.9236C259.034 49.7694 255.002 50.5898 251.216 50.5898C240.71 50.5898 233.992 44.3003 233.992 33.0201C233.992 22.8338 239.367 16.134 249.628 16.134C258.484 16.134 264.408 21.1247 264.408 32.815C264.408 36.0965 263.92 36.6434 261.11 36.6434ZM249.689 23.996C245.963 23.996 244.192 26.0469 243.886 29.9437H255.002C255.002 25.9102 253.414 23.996 249.689 23.996Z" fill="#06376B"/>
<path d="M290.258 46.8298V30.3539C290.258 27.0724 288.792 25.0214 285.677 25.0214C282.623 25.0214 281.34 27.004 280.607 28.9866V46.8298C280.607 49.0858 279.874 49.7694 277.859 49.7694H273.217C271.201 49.7694 270.468 49.0858 270.468 46.8298V19.6206C270.468 17.5697 271.201 16.8177 273.706 16.8177C277.554 16.8177 278.47 17.1595 280.302 20.0308C282.318 17.8432 285.066 16.2708 289.342 16.2708C298.87 16.2708 300.458 23.996 300.458 31.8579V46.8298C300.458 49.0858 299.664 49.7694 297.709 49.7694H293.006C291.052 49.7694 290.258 49.0858 290.258 46.8298Z" fill="#06376B"/>
<path d="M316.304 33.0201C316.304 39.6515 320.152 41.7024 323.817 41.7024C327.42 41.7024 330.23 39.9933 331.329 39.9933C332.123 39.9933 332.673 40.882 332.673 42.7279C332.673 43.8901 332.429 46.0777 330.657 47.7869C328.703 49.6327 325.221 50.4531 321.74 50.4531C312.09 50.4531 306.104 43.7533 306.104 32.9517C306.104 22.4236 311.845 16.134 321.801 16.134C324.427 16.134 327.298 16.4759 329.436 17.8432C331.146 18.937 332.062 20.5094 332.062 22.7654C332.062 24.8164 331.146 25.9102 330.352 25.9102C329.436 25.9102 326.87 24.3378 323.633 24.3378C319.175 24.3378 316.304 27.1407 316.304 33.0201Z" fill="#06376B"/>
<path d="M363.702 36.6434H346.6C347.333 40.8137 350.631 42.2493 354.662 42.2493C358.999 42.2493 363.396 40.5402 364.679 40.5402C365.656 40.5402 366.328 41.7024 366.328 43.4799C366.328 45.5308 365.351 46.8981 364.007 47.9236C361.625 49.7694 357.594 50.5898 353.807 50.5898C343.302 50.5898 336.583 44.3003 336.583 33.0201C336.583 22.8338 341.958 16.134 352.219 16.134C361.075 16.134 367 21.1247 367 32.815C367 36.0965 366.511 36.6434 363.702 36.6434ZM352.28 23.996C348.555 23.996 346.783 26.0469 346.478 29.9437H357.594C357.594 25.9102 356.006 23.996 352.28 23.996Z" fill="#06376B"/>
<path d="M0 3.48655C0 1.29888 0.671855 0.546875 2.7485 0.546875H18.6898C28.5233 0.546875 33.0431 6.01604 33.0431 13.3994C33.0431 17.0227 31.9437 22.1501 25.8359 23.5857C33.4706 24.6112 35.4251 29.9437 35.4251 34.5924C35.4251 42.2493 31.2107 49.7694 18.9341 49.7694H2.7485C0.732933 49.7694 0 49.0174 0 46.8297V3.48655ZM16.9185 27.3458H10.6886V41.3605H16.9185C23.7592 41.3605 25.103 37.9423 25.103 34.5241C25.103 31.1742 23.7592 27.3458 16.9185 27.3458ZM16.9185 8.54553H10.6886V19.3471H16.9185C21.3772 19.3471 23.3928 17.2278 23.3928 13.9463C23.3928 10.6648 21.3772 8.54553 16.9185 8.54553Z" fill="#D15133"/>
<path d="M41.4269 46.8297V19.6206C41.4269 17.5697 42.1599 16.8177 44.6641 16.8177C48.1455 16.8177 49.2449 17.0911 50.7108 19.2104C52.3599 17.2278 54.5587 16.134 57.185 16.134C61.888 16.134 63.2928 19.6206 63.2928 22.0817C63.2928 24.8847 62.3155 26.6622 61.6437 26.6622C60.7886 26.6622 59.6281 25.8418 57.7958 25.8418C53.7647 25.8418 51.6269 27.4825 51.5659 32.063V46.8297C51.5659 49.0858 50.8329 49.7694 48.8173 49.7694H44.1754C42.1599 49.7694 41.4269 49.0858 41.4269 46.8297Z" fill="#D15133"/>
<path d="M67.552 46.8297V19.7573C67.552 17.5697 68.2849 16.8177 70.3005 16.8177H75.0035C76.958 16.8177 77.6909 17.5697 77.6909 19.7573V46.8297C77.6909 49.0858 76.958 49.7694 75.0035 49.7694H70.3005C68.346 49.7694 67.552 49.0858 67.552 46.8297ZM67.1245 9.91283V5.53749C67.1245 3.34982 67.8574 2.59781 69.8119 2.59781H75.431C77.3855 2.59781 78.1185 3.34982 78.1185 5.53749V9.91283C78.1185 12.1689 77.3855 12.9209 75.431 12.9209H69.8119C67.8574 12.9209 67.1245 12.1689 67.1245 9.91283Z" fill="#D15133"/>
<path d="M93.8235 33.0201C93.8235 39.6514 97.6714 41.7024 101.336 41.7024C104.94 41.7024 107.749 39.9933 108.849 39.9933C109.643 39.9933 110.192 40.882 110.192 42.7278C110.192 43.89 109.948 46.0777 108.177 47.7868C106.222 49.6327 102.741 50.453 99.2595 50.453C89.6092 50.453 83.6236 43.7533 83.6236 32.9517C83.6236 22.4236 89.3649 16.134 99.3205 16.134C101.947 16.134 104.818 16.4758 106.955 17.8431C108.665 18.937 109.582 20.5093 109.582 22.7654C109.582 24.8163 108.665 25.9101 107.871 25.9101C106.955 25.9101 104.39 24.3378 101.153 24.3378C96.6942 24.3378 93.8235 27.1407 93.8235 33.0201Z" fill="#D15133"/>
<path d="M115.569 46.8297V4.1702C115.569 1.98253 116.241 1.23052 118.317 1.23052H122.959C125.036 1.23052 125.708 1.98253 125.708 4.1702V29.8753L133.342 19.4155C134.747 17.3646 135.48 16.8177 137.618 16.8177H142.26C144.153 16.8177 144.947 17.2962 144.947 18.1849C144.947 18.7319 144.642 19.4839 144.031 20.3726L134.869 32.063L145.252 46.2144C145.863 47.1032 146.23 47.8552 146.23 48.4021C146.23 49.2908 145.436 49.7694 143.542 49.7694H138.961C136.518 49.7694 135.969 49.2225 134.564 47.1715L125.708 35.071V46.8297C125.708 49.0858 124.975 49.7694 122.959 49.7694H118.317C116.302 49.7694 115.569 49.0858 115.569 46.8297Z" fill="#D15133"/>
</svg>
