<svg width="293" height="41" viewBox="0 0 293 41" fill="none" xmlns="http://www.w3.org/2000/svg">
<path d="M118.76 34.4598C118.76 33.4156 119.004 31.2172 120.077 31.2172C121.296 31.2172 124.124 33.8552 129.634 33.8552C134.998 33.8552 136.754 31.437 136.754 28.9638C136.754 21.2145 119.882 25.5013 119.882 11.6515C119.882 2.85791 126.367 0 132.56 0C135.047 0 138.265 0.439679 140.655 1.86863C142.605 3.02279 143.678 4.61662 143.678 6.7051C143.678 8.40885 142.995 9.39812 142.215 9.39812C140.85 9.39812 138.363 7.14477 133.779 7.14477C130.561 7.14477 127.976 8.13405 127.976 11.1019C127.976 18.7962 144.848 13.8499 144.848 28.634C144.848 37.3177 139.387 41 130.853 41C127.001 41 123.149 40.2855 121.003 38.7467C119.589 37.7024 118.76 36.3284 118.76 34.4598Z" fill="black"/>
<path d="M156.668 26.5456C156.668 31.8767 159.74 33.5255 162.666 33.5255C165.543 33.5255 167.786 32.1515 168.664 32.1515C169.297 32.1515 169.736 32.866 169.736 34.3499C169.736 35.2842 169.541 37.0429 168.127 38.4169C166.567 39.9008 163.787 40.5603 161.008 40.5603C153.303 40.5603 148.525 35.1743 148.525 26.4906C148.525 18.0268 153.108 12.9705 161.057 12.9705C163.153 12.9705 165.445 13.2453 167.152 14.3445C168.517 15.2239 169.249 16.4879 169.249 18.3016C169.249 19.9504 168.517 20.8298 167.883 20.8298C167.152 20.8298 165.104 19.5657 162.52 19.5657C158.96 19.5657 156.668 21.819 156.668 26.5456Z" fill="black"/>
<path d="M173.98 37.6475V15.8834C173.98 14.1247 174.565 13.5201 176.174 13.5201H179.929C181.489 13.5201 182.074 14.1247 182.074 15.8834V37.6475C182.074 39.4611 181.489 40.0107 179.929 40.0107H176.174C174.614 40.0107 173.98 39.4611 173.98 37.6475ZM173.638 7.96917V4.45174C173.638 2.69303 174.224 2.08847 175.784 2.08847H180.27C181.831 2.08847 182.416 2.69303 182.416 4.45174V7.96917C182.416 9.78284 181.831 10.3874 180.27 10.3874H175.784C174.224 10.3874 173.638 9.78284 173.638 7.96917Z" fill="black"/>
<path d="M208.461 29.4584H194.808C195.393 32.811 198.026 33.9651 201.244 33.9651C204.707 33.9651 208.217 32.5912 209.241 32.5912C210.022 32.5912 210.558 33.5255 210.558 34.9544C210.558 36.6032 209.778 37.7024 208.705 38.5268C206.803 40.0107 203.585 40.6702 200.562 40.6702C192.175 40.6702 186.811 35.6139 186.811 26.5456C186.811 18.3566 191.102 12.9705 199.294 12.9705C206.364 12.9705 211.094 16.9826 211.094 26.3807C211.094 29.0188 210.704 29.4584 208.461 29.4584ZM199.343 19.2909C196.368 19.2909 194.954 20.9397 194.71 24.0724H203.585C203.585 20.8298 202.317 19.2909 199.343 19.2909Z" fill="black"/>
<path d="M231.732 37.6475V24.4021C231.732 21.7641 230.561 20.1153 228.074 20.1153C225.636 20.1153 224.612 21.7091 224.027 23.3029V37.6475C224.027 39.4611 223.442 40.0107 221.833 40.0107H218.127C216.518 40.0107 215.933 39.4611 215.933 37.6475V15.7735C215.933 14.1247 216.518 13.5201 218.517 13.5201C221.589 13.5201 222.32 13.7949 223.783 16.1032C225.392 14.3445 227.587 13.0804 231 13.0804C238.607 13.0804 239.875 19.2909 239.875 25.6113V37.6475C239.875 39.4611 239.241 40.0107 237.681 40.0107H233.926C232.365 40.0107 231.732 39.4611 231.732 37.6475Z" fill="black"/>
<path d="M252.526 26.5456C252.526 31.8767 255.598 33.5255 258.524 33.5255C261.401 33.5255 263.644 32.1515 264.522 32.1515C265.155 32.1515 265.594 32.866 265.594 34.3499C265.594 35.2842 265.399 37.0429 263.985 38.4169C262.425 39.9008 259.645 40.5603 256.866 40.5603C249.161 40.5603 244.383 35.1743 244.383 26.4906C244.383 18.0268 248.966 12.9705 256.915 12.9705C259.011 12.9705 261.303 13.2453 263.01 14.3445C264.375 15.2239 265.107 16.4879 265.107 18.3016C265.107 19.9504 264.375 20.8298 263.741 20.8298C263.01 20.8298 260.962 19.5657 258.378 19.5657C254.818 19.5657 252.526 21.819 252.526 26.5456Z" fill="black"/>
<path d="M290.367 29.4584H276.713C277.298 32.811 279.932 33.9651 283.15 33.9651C286.612 33.9651 290.123 32.5912 291.147 32.5912C291.927 32.5912 292.464 33.5255 292.464 34.9544C292.464 36.6032 291.683 37.7024 290.611 38.5268C288.709 40.0107 285.491 40.6702 282.467 40.6702C274.08 40.6702 268.716 35.6139 268.716 26.5456C268.716 18.3566 273.007 12.9705 281.199 12.9705C288.27 12.9705 293 16.9826 293 26.3807C293 29.0188 292.61 29.4584 290.367 29.4584ZM281.248 19.2909C278.274 19.2909 276.86 20.9397 276.616 24.0724H285.491C285.491 20.8298 284.223 19.2909 281.248 19.2909Z" fill="black"/>
<path d="M0 2.80297C0 1.04425 0.536386 0.439697 2.19431 0.439697H14.9213C22.772 0.439697 26.3804 4.83648 26.3804 10.7721C26.3804 13.685 25.5027 17.807 20.6265 18.9611C26.7218 19.7855 28.2822 24.0724 28.2822 27.8097C28.2822 33.9652 24.9176 40.0107 15.1163 40.0107H2.19431C0.585148 40.0107 0 39.4062 0 37.6475V2.80297ZM13.5072 21.9839H8.53341V33.2507H13.5072C18.9686 33.2507 20.0413 30.5027 20.0413 27.7547C20.0413 25.0617 18.9686 21.9839 13.5072 21.9839ZM13.5072 6.86999H8.53341V15.5536H13.5072C17.0668 15.5536 18.676 13.8499 18.676 11.2118C18.676 8.57374 17.0668 6.86999 13.5072 6.86999Z" fill="#D15133"/>
<path d="M33.0738 37.6475V15.7735C33.0738 14.1247 33.659 13.5201 35.6582 13.5201C38.4377 13.5201 39.3154 13.74 40.4857 15.4437C41.8023 13.8499 43.5577 12.9705 45.6545 12.9705C49.4092 12.9705 50.5307 15.7735 50.5307 17.752C50.5307 20.0054 49.7505 21.4343 49.2142 21.4343C48.5315 21.4343 47.605 20.7748 46.1421 20.7748C42.9238 20.7748 41.2171 22.0939 41.1684 25.7762V37.6475C41.1684 39.4611 40.5832 40.0107 38.9741 40.0107H35.2681C33.659 40.0107 33.0738 39.4611 33.0738 37.6475Z" fill="#D15133"/>
<path d="M53.9312 37.6475V15.8834C53.9312 14.1247 54.5163 13.5201 56.1255 13.5201H59.8802C61.4406 13.5201 62.0257 14.1247 62.0257 15.8834V37.6475C62.0257 39.4611 61.4406 40.0107 59.8802 40.0107H56.1255C54.5651 40.0107 53.9312 39.4611 53.9312 37.6475ZM53.5898 7.96919V4.45176C53.5898 2.69305 54.175 2.08849 55.7354 2.08849H60.2215C61.7819 2.08849 62.367 2.69305 62.367 4.45176V7.96919C62.367 9.78286 61.7819 10.3874 60.2215 10.3874H55.7354C54.175 10.3874 53.5898 9.78286 53.5898 7.96919Z" fill="#D15133"/>
<path d="M74.9054 26.5456C74.9054 31.8767 77.9775 33.5255 80.9032 33.5255C83.7802 33.5255 86.0233 32.1515 86.901 32.1515C87.5349 32.1515 87.9738 32.866 87.9738 34.3499C87.9738 35.2842 87.7787 37.0429 86.3646 38.4169C84.8042 39.9008 82.0247 40.5603 79.2453 40.5603C71.5408 40.5603 66.7621 35.1743 66.7621 26.4906C66.7621 18.0268 71.3458 12.9705 79.2941 12.9705C81.3908 12.9705 83.6827 13.2453 85.3894 14.3445C86.7547 15.2239 87.4861 16.488 87.4861 18.3016C87.4861 19.9504 86.7547 20.8298 86.1208 20.8298C85.3893 20.8298 83.3413 19.5657 80.7569 19.5657C77.1973 19.5657 74.9054 21.819 74.9054 26.5456Z" fill="#D15133"/>
<path d="M92.266 37.6475V3.35256C92.266 1.59385 92.8024 0.989295 94.4603 0.989295H98.1662C99.8242 0.989295 100.361 1.59385 100.361 3.35256V24.0174L106.456 15.6086C107.577 13.9598 108.163 13.5201 109.869 13.5201H113.575C115.087 13.5201 115.721 13.9048 115.721 14.6193C115.721 15.059 115.477 15.6636 114.989 16.378L107.675 25.7762L115.964 37.1528C116.452 37.8673 116.745 38.4719 116.745 38.9115C116.745 39.626 116.111 40.0107 114.599 40.0107H110.942C108.991 40.0107 108.553 39.5711 107.431 37.9223L100.361 28.1944V37.6475C100.361 39.4611 99.7754 40.0107 98.1662 40.0107H94.4603C92.8511 40.0107 92.266 39.4611 92.266 37.6475Z" fill="#D15133"/>
</svg>
