<svg width="21" height="21" viewBox="0 0 21 21" fill="none" xmlns="http://www.w3.org/2000/svg">
<path fill-rule="evenodd" clip-rule="evenodd" d="M0.0822067 3.45741C0.475459 1.33385 2.28442 0.154091 2.28442 0.154091C2.28442 0.154091 2.99227 -0.317812 3.85743 0.390042C4.80123 1.0979 7.31804 3.37876 7.31804 3.37876C7.31804 3.37876 8.1832 4.16526 7.78995 5.03042C7.31804 5.89557 5.82369 7.46858 5.82369 7.46858C5.27313 9.35619 11.7225 15.7269 13.5314 15.1763C13.5314 15.1763 15.1044 13.682 15.9696 13.2887C16.8347 12.8955 17.6212 13.682 17.6212 13.682C17.6212 13.682 19.9021 16.2774 20.61 17.1426C21.3178 18.0077 20.8459 18.7942 20.8459 18.7942C20.8459 18.7942 19.7448 20.5245 17.5426 20.9178C10.7 22.0976 -1.09755 10.3 0.0822067 3.45741Z" fill="#D15133"/>
</svg>
